<svg data-v-423bf9ae="" xmlns="http://www.w3.org/2000/svg" viewBox="0 0 223.2680887611351 60" class="font"><!----><!----><!----><g data-v-423bf9ae="" id="cfb117dc-eb42-4540-9f13-8155613ee4fb" fill="white" transform="matrix(5.870841333886128,0,0,5.870841333886128,-5.694713372582044,-20.90019481270238)"><path d="M11.38 7.77C11.21 6.75 10.43 5.95 9.06 5.95C8.40 5.95 7.88 6.08 7.48 6.38L6.79 7.36C6.51 6.54 5.77 5.95 4.59 5.95C3.92 5.95 3.40 6.08 3.01 6.38L2.51 7.25L2.51 6.15L0.97 6.15L0.97 13.58L2.51 13.58L2.51 9.84C2.51 7.83 3.09 7.08 4.00 7.08C4.80 7.08 5.28 7.50 5.39 8.30C5.43 8.68 5.45 9.09 5.45 9.65L5.45 13.58L6.97 13.58L6.97 9.84C6.97 7.83 7.57 7.08 8.47 7.08C9.27 7.08 9.76 7.50 9.86 8.30C9.90 8.68 9.91 9.09 9.91 9.65L9.91 13.58L11.45 13.58L11.45 9.09C11.45 8.48 11.44 8.15 11.38 7.77ZM14.10 3.56C13.58 3.56 13.20 3.93 13.20 4.44C13.20 4.96 13.58 5.33 14.10 5.33C14.62 5.33 15.01 4.96 15.01 4.44C15.01 3.93 14.62 3.56 14.10 3.56ZM14.87 13.58L14.87 6.15L13.33 6.15L13.33 13.58ZM27.26 7.77C27.09 6.75 26.31 5.95 24.93 5.95C24.28 5.95 23.76 6.08 23.35 6.38L22.67 7.36C22.39 6.54 21.64 5.95 20.47 5.95C19.80 5.95 19.28 6.08 18.89 6.38L18.38 7.25L18.38 6.15L16.84 6.15L16.84 13.58L18.38 13.58L18.38 9.84C18.38 7.83 18.97 7.08 19.88 7.08C20.68 7.08 21.15 7.50 21.27 8.30C21.31 8.68 21.32 9.09 21.32 9.65L21.32 13.58L22.85 13.58L22.85 9.84C22.85 7.83 23.45 7.08 24.35 7.08C25.14 7.08 25.63 7.50 25.73 8.30C25.77 8.68 25.79 9.09 25.79 9.65L25.79 13.58L27.33 13.58L27.33 9.09C27.33 8.48 27.31 8.15 27.26 7.77ZM29.97 3.56C29.46 3.56 29.08 3.93 29.08 4.44C29.08 4.96 29.46 5.33 29.97 5.33C30.49 5.33 30.88 4.96 30.88 4.44C30.88 3.93 30.49 3.56 29.97 3.56ZM30.74 13.58L30.74 6.15L29.20 6.15L29.20 13.58ZM35.76 5.95C33.81 5.95 32.16 7.36 32.16 9.90C32.16 12.54 33.63 13.78 35.57 13.78C37.32 13.78 38.61 12.89 38.96 11.12L37.39 11.12C37.17 12.12 36.54 12.66 35.66 12.66C34.62 12.66 33.78 11.80 33.78 9.79C33.78 7.92 34.64 7.07 35.71 7.07C36.62 7.07 37.23 7.59 37.45 8.72L39.00 8.72C38.82 7.08 37.63 5.95 35.76 5.95Z"></path></g><!----><!----></svg>